<svg id="Groupe_382" data-name="Groupe 382" xmlns="http://www.w3.org/2000/svg" width="146.414" height="294.104" viewBox="0 0 146.414 294.104">
  <path id="Tracé_909" data-name="Tracé 909" d="M0,10.448H10.1l.348,166.023-10.1-10.1ZM51.541,166.371h0L51.193,10.448h-10.1l.348,166.023ZM41.094,10.1V0H10.448V10.1Z" transform="translate(99.671 294.104) rotate(180)" fill="#7e79fa"/>
  <g id="Touche_A" data-name="Touche A" transform="translate(0 0)">
    <path id="Tracé_882" data-name="Tracé 882" d="M41.179,0V13.726H27.453V27.453H13.726V41.179H0V68.632H0V82.358H0V109.81H13.726v13.726H27.453v13.726H41.179v13.726h64.056V137.263h13.726V123.537h13.726V109.81h13.726V82.358h0V68.632h0V41.179H132.688V27.453H118.961V13.726H105.235V0Z" fill="#7e79fa"/>
    <rect id="Rectangle_108" data-name="Rectangle 108" width="12" height="12" transform="translate(93 24.855)" fill="#fff"/>
    <rect id="Rectangle_109" data-name="Rectangle 109" width="12" height="12" transform="translate(105 36.855)" fill="#fff"/>
    <rect id="Rectangle_110" data-name="Rectangle 110" width="12" height="12" transform="translate(117 48.855)" fill="#fff"/>
  </g>
</svg>
