<svg xmlns="http://www.w3.org/2000/svg" width="98.69" height="102.357" viewBox="0 0 98.69 102.357">
  <g id="Groupe_393" data-name="Groupe 393" transform="translate(-1002.591 -421.61)">
    <g id="Touche_A" data-name="Touche A" transform="translate(1002.591 429.708)">
      <path id="Tracé_882" data-name="Tracé 882" d="M25.707,0V8.569H17.138v8.569H8.569v8.569H0V42.845H0v8.569H0V68.552H8.569V77.12h8.569v8.569h8.569v8.569H65.7V85.689h8.569V77.12h8.569V68.552H91.4V51.414h0V42.845h0V25.707H82.833V17.138H74.264V8.569H65.7V0Z" transform="translate(0 0)" fill="#443d81"/>
      <text id="X" transform="translate(46.196 65.849)" fill="#443d81" font-size="40" font-family="PressStart2P-Regular, 'Press Start 2P'"><tspan x="-20" y="0">X</tspan></text>
    </g>
    <g id="Touche_A-2" data-name="Touche A" transform="translate(1009.879 421.61)">
      <path id="Tracé_882-2" data-name="Tracé 882" d="M25.707,0V8.569H17.138v8.569H8.569v8.569H0V42.845H0v8.569H0V68.552H8.569V77.12h8.569v8.569h8.569v8.569H65.7V85.689h8.569V77.12h8.569V68.552H91.4V51.414h0V42.845h0V25.707H82.833V17.138H74.264V8.569H65.7V0Z" transform="translate(0 0)" fill="#7e79fa"/>
      <text id="X-2" data-name="X" transform="translate(46.196 65.849)" fill="rgba(255,255,255,0.87)" font-size="40" font-family="PressStart2P-Regular, 'Press Start 2P'"><tspan x="-20" y="0">X</tspan></text>
    </g>
  </g>
</svg>
