<svg id="Groupe_337" data-name="Groupe 337" xmlns="http://www.w3.org/2000/svg" width="123" height="123" viewBox="0 0 123 123">
  <rect id="Rectangle_81" data-name="Rectangle 81" width="111" height="6" transform="translate(6)" fill="#fff222"/>
  <rect id="Rectangle_82" data-name="Rectangle 82" width="111" height="6" transform="translate(6 117)" fill="#c97005"/>
  <rect id="Rectangle_83" data-name="Rectangle 83" width="111" height="6" transform="translate(0 117) rotate(-90)" fill="#fff222"/>
  <rect id="Rectangle_84" data-name="Rectangle 84" width="111" height="6" transform="translate(117 117) rotate(-90)" fill="#c97005"/>
  <rect id="Rectangle_107" data-name="Rectangle 107" width="110.982" height="111" transform="translate(6 6)" fill="#ffd900"/>
  <g id="Calque_2" data-name="Calque 2" transform="translate(12.418 10.775)">
    <g id="Calque_1" data-name="Calque 1">
      <path id="Tracé_882" data-name="Tracé 882" d="M2.577,0V.859H1.718v.859H.859v.859H0V4.3H0v.859H0V6.873H.859v.859h.859v.859h.859V9.45H6.587V8.591h.859V7.732H8.3V6.873h.859V5.155h0V4.3h0V2.577H8.3V1.718H7.446V.859H6.587V0Z" fill="#c97005"/>
    </g>
  </g>
  <g id="Calque_2-2" data-name="Calque 2" transform="translate(12.418 99.775)">
    <g id="Calque_1-2" data-name="Calque 1">
      <path id="Tracé_882-2" data-name="Tracé 882" d="M2.577,0V.859H1.718v.859H.859v.859H0V4.3H0v.859H0V6.873H.859v.859h.859v.859h.859V9.45H6.587V8.591h.859V7.732H8.3V6.873h.859V5.155h0V4.3h0V2.577H8.3V1.718H7.446V.859H6.587V0Z" fill="#c97005"/>
    </g>
  </g>
  <g id="Calque_2-3" data-name="Calque 2" transform="translate(101.418 10.775)">
    <g id="Calque_1-3" data-name="Calque 1">
      <path id="Tracé_882-3" data-name="Tracé 882" d="M2.577,0V.859H1.718v.859H.859v.859H0V4.3H0v.859H0V6.873H.859v.859h.859v.859h.859V9.45H6.587V8.591h.859V7.732H8.3V6.873h.859V5.155h0V4.3h0V2.577H8.3V1.718H7.446V.859H6.587V0Z" fill="#c97005"/>
    </g>
  </g>
  <g id="Calque_2-4" data-name="Calque 2" transform="translate(101.418 99.775)">
    <g id="Calque_1-4" data-name="Calque 1">
      <path id="Tracé_882-4" data-name="Tracé 882" d="M2.577,0V.859H1.718v.859H.859v.859H0V4.3H0v.859H0V6.873H.859v.859h.859v.859h.859V9.45H6.587V8.591h.859V7.732H8.3V6.873h.859V5.155h0V4.3h0V2.577H8.3V1.718H7.446V.859H6.587V0Z" fill="#c97005"/>
    </g>
  </g>
</svg>
