<svg xmlns="http://www.w3.org/2000/svg" width="45.554" height="143.572" viewBox="0 0 45.554 143.572">
  <g id="Groupe_393" data-name="Groupe 393" transform="translate(432.454 -5.2)">
    <path id="Tracé_827" data-name="Tracé 827" d="M-420.836,10.388l10.3,11.179,7.3,1.525,2.59,3.711,3.868,3.986-2.608,5.671-6.4,3.589-8.448,4.158h-10.649V7.719Z" transform="translate(0 0.862)" fill="#ffc107" stroke="#ffc107" stroke-width="1"/>
    <path id="Tracé_823" data-name="Tracé 823" d="M30.45,10.61v4.746H25.7V10.61Zm0,9.493H35.2V15.357H30.45Zm4.91,19.313v4.746h9.493V39.416ZM21.793,44.163V10.446h3.746V5.7H15.046V148.272h6.746v-99.2H35.2V44.327Zm23.223-19.15V29.76h4.746V25.013Zm14.4,4.746H49.763v4.746h9.82L59.42,29.76ZM35.36,20.267v4.746h9.493V20.267Zm9.657,19.15h4.746V34.67H45.016Z" transform="translate(-447)" fill="#ffc107" stroke="#ffc107" stroke-width="1"/>
  </g>
</svg>
