<svg id="Fleche_jaune" data-name="Fleche jaune" xmlns="http://www.w3.org/2000/svg" width="47.737" height="70.01" viewBox="0 0 47.737 70.01">
  <g id="fleche" transform="translate(133.737 150.01) rotate(180)">
    <path id="Tracé_795" data-name="Tracé 795" d="M106,104v5.508h5.508V104Z" transform="translate(16.721 20.065)" fill="#707070"/>
    <path id="Tracé_796" data-name="Tracé 796" d="M133.737,107.54v16.524H122.721v9.18h-5.508v5.508H111.7v5.508h-3.672v5.508H91.508v-5.508H86V85.508h5.508V80h16.524v5.508H111.7V91.2l5.508-.184v5.508h5.508v5.508h5.508v5.508Z" transform="translate(0)" fill="#c97005"/>
  </g>
  <g id="fleche-2" data-name="fleche" transform="translate(129.551 142.251) rotate(180)">
    <path id="Tracé_795-2" data-name="Tracé 795" d="M106,104v5.508h5.508V104Z" transform="translate(12.349 14.91)" fill="#eee128"/>
    <path id="Tracé_796-2" data-name="Tracé 796" d="M129.366,104.573v14.744H119.358v8.191h-5v4.915h-5v4.915h-3.336v4.915H91v-4.915H86V84.915h5V80h15.011v4.915h3.336v5.078l5-.164v4.915h5v4.915h5v4.915Z" transform="translate(0)" fill="#eee128"/>
  </g>
</svg>
