<?xml version="1.0" encoding="utf-8"?>
<!-- Generator: Adobe Illustrator 24.0.2, SVG Export Plug-In . SVG Version: 6.00 Build 0)  -->
<svg version="1.1" id="Calque_1" xmlns="http://www.w3.org/2000/svg" xmlns:xlink="http://www.w3.org/1999/xlink" x="0px" y="0px"
	 viewBox="0 0 1920 1080" style="enable-background:new 0 0 1920 1080;" xml:space="preserve">
<style type="text/css">
	.st0{opacity:0.1;}
	.st1{fill:#FFFFFF;}
	.st2{fill:none;stroke:#FFFFFF;stroke-width:4;stroke-linecap:round;stroke-linejoin:round;stroke-miterlimit:10;}
	.st3{fill:none;stroke:#FFFFFF;stroke-width:2;stroke-linecap:round;stroke-linejoin:round;stroke-miterlimit:10;}
	.st4{fill:none;}
	.st5{font-family:'FuturaStd-Book';}
	.st6{font-size:73.446px;}
	.st7{font-family:'FuturaStd-Bold';}
	.st8{fill:none;stroke:#FFFFFF;stroke-width:4;stroke-miterlimit:10;}
	.st9{fill:none;stroke:#FFFFFF;stroke-width:12;stroke-miterlimit:10;}
	.st10{fill:none;stroke:#FFFFFF;stroke-width:6;stroke-miterlimit:10;}
	.st11{opacity:0.9;}
	.st12{opacity:0.4;}
	.st13{fill:none;stroke:#FFFFFF;stroke-width:3;stroke-miterlimit:10;}
	.st14{fill:none;stroke:#FFFFFF;stroke-width:2;stroke-miterlimit:10;}
	.st15{fill:#FAC812;}
</style>
<g id="XMLID_179_" class="st0">
	<path id="XMLID_187_" class="st1" d="M1117.8,623.7c27.1,61.5,37.9,122.7,38.3,184.8c0,5.2-0.4,10.4-0.8,15.5c-1,11-6.8,15-16,13.4
		c-9-1.6-16-10.3-17-20.6c-0.4-4.9-0.2-9.7-0.2-14.5c-1.7-112.9-40.9-210.9-118.2-293.5c-4.1-4.4-8.3-8.8-12.4-13.2
		c-7.4-8.1-7.3-16.9-3.1-24.3c4.5-8,11.8-10.5,20.4-4.4c5,3.5,9.6,8.2,14.1,12.8C1063.2,521.3,1095.3,569.8,1117.8,623.7z"/>
	<path id="XMLID_185_" class="st1" d="M1052.3,656c16.5,44.4,24.7,88.8,25.6,133.8c0.2,7.2-0.4,14.4-1.6,21.3
		c-1.7,9.9-6.9,15.3-16.6,12.6c-9-2.5-14.8-10.6-15.6-21.9c-0.5-6.9-0.5-13.7-0.7-20.6c-2.4-80.6-30.8-150.6-85.7-209.7
		c-4.4-4.7-8.8-9.5-12.9-14.6c-7.8-9.6-8.9-18.7-3.7-26.2c5.8-8.2,15.4-9.4,23.6-0.3c18,20.1,36.5,40.2,52.3,62.6
		C1030.6,612.3,1040.7,634.9,1052.3,656z"/>
	<path id="XMLID_183_" class="st1" d="M981.2,683.9c14.8,35.1,19.4,70.6,18.1,106.3c-0.4,10.5-2.6,19.8-13.4,20.1
		c-10.5,0.3-18.3-8.8-19.5-22.1c-2-21.1-2.7-42.3-6.8-63.2c-7.1-35.3-24.7-65.3-48.1-91.3c-4.6-5.1-9.4-9.9-13.9-15.2
		c-8.3-9.9-9.4-18.3-3.9-27.2c4.8-7.7,14.7-9.5,22.7-0.6c16.1,17.9,31.7,36.8,46,56.6C970.2,658,975,671.6,981.2,683.9z"/>
	<path id="XMLID_181_" class="st1" d="M913,708.2c9.9,24.4,13.8,48.9,10,73.1c-2.7,17.3-15.5,22.3-26.2,9.8
		c-4.2-4.9-7.3-14.7-6.7-20.9c2.1-21.4-2.8-41.7-13.6-60.5c-6.6-11.5-16.1-21.2-24.9-31.1c-6.2-7-10.1-13.9-8.5-23.1
		c2.3-12.5,12.5-15.9,24.2-8.3C884.5,658.5,902.6,682.7,913,708.2z"/>
</g>
<g id="XMLID_69_">
	<g id="XMLID_72_">
		<g id="XMLID_170_">
			<g>
			</g>
			<g>
				<path class="st2" d="M877.7,682.2c-4,30.4-10.2,76.7-14.1,105.9c-4.4,33.2-16.6,44.1-44.9,40.3c-51.9-6.9-103.9-13.8-155.9-20.7
					c-24.4-3.2-34.3-18.3-30.5-46.6c15.8-119.3,31.7-238.6,47.6-357.9c3.8-28.7,17-40.6,41.3-37.3c53.3,7,106.6,14.1,159.8,21.2
					c23.7,3.2,33.4,18.2,29.7,46.1c-3.8,28.9-9.5,71.9-13.6,102.3L877.7,682.2z"/>
				<path class="st3" d="M880.9,526.3c2.3-17.4,10.5-79.1,12.6-94.9c-65.9-8.8-131-17.4-196.1-26.1c-13,98-32.2,242.1-45.1,339.2
					c65.9,8.8,131.1,17.4,196.3,26.1c2.6-19.5,9.7-72.6,12.3-92.8L880.9,526.3z"/>
				<path class="st3" d="M822.5,408.6l-50.2-6.7c-1.8-0.2-3-1.9-2.8-3.7c0.2-1.7,1.7-2.9,3.4-2.8c0.1,0,0.2,0,0.3,0l50.2,6.7
					c1.8,0.2,3.1,1.9,2.8,3.6c-0.2,1.7-1.7,2.9-3.4,2.8C822.7,408.6,822.6,408.6,822.5,408.6z"/>
			</g>
		</g>
		<path id="XMLID_73_" class="st3" d="M765.6,789.7c-1.1,8.7-9.1,14.7-17.8,13.6c-8.7-1.1-14.7-9.1-13.6-17.8
			c1.1-8.7,9.1-14.7,17.8-13.6C760.6,773.1,766.7,781,765.6,789.7z"/>
	</g>
	
		<rect id="XMLID_9_" x="738.9" y="517.3" transform="matrix(0.1305 -0.9914 0.9914 0.1305 78.7169 1284.1573)" class="st4" width="65.2" height="159.8"/>
	<text id="XMLID_70_" transform="matrix(0.9914 0.1305 -0.1305 0.9914 688.5852 614.9032)"><tspan x="0" y="0" class="st1 st5 st6">NFC</tspan><tspan x="149" y="0" class="st1 st7 st6"> </tspan></text>
</g>
<g id="XMLID_53_">
	<path id="XMLID_65_" class="st8" d="M614.8,616L333,683.4c-5.5,1.3-11-2.1-12.3-7.5l-38.8-162.2c-1.3-5.5,2.1-11,7.5-12.3
		L571.2,434c5.5-1.3,11,2.1,12.3,7.5l38.8,162.2C623.6,609.2,620.2,614.7,614.8,616z"/>
	<g>
		<path class="st1" d="M572.8,579l-0.7,0.2l1.3,5.4l0.8-0.2c1.9-0.5,5.2-1.1,4.5-3.9C578.1,577.4,574.9,578.4,572.8,579z"/>
		<path class="st1" d="M574.7,570.8c-0.5-2.3-2.6-1.9-4.4-1.5l-0.5,0.1l1.2,4.8l0.7-0.2C573.5,573.7,575.2,573,574.7,570.8z"/>
		<path class="st1" d="M566.3,552.5c-7.4,1.8-13.2,6.6-16.6,12.8c-5.8-4-13.2-5.7-20.6-3.9c-13.8,3.3-22.3,17.2-19,31
			c3.3,13.8,17.2,22.3,31,19c7.4-1.8,13.2-6.6,16.6-12.8c5.8,4,13.2,5.7,20.6,3.9c13.8-3.3,22.3-17.2,19-31
			C594,557.7,580.1,549.1,566.3,552.5z M541.2,580.6c-1.8-1.5-4.1-1.9-6.4-1.4c-4,1-5.9,4.6-5,8.5c0.9,3.9,4.3,6.1,8.4,5.2
			c2.1-0.5,4-2,5-4l1.9,7.8c-2,1.2-3.4,2-5.5,2.5c-3.5,0.8-7.1,0.3-10.3-1.4c-3.3-1.8-5.4-4.8-6.3-8.5c-0.8-3.4-0.3-7,1.5-10
			c1.9-3.1,5-5.5,8.6-6.3c2.1-0.5,4.1-0.5,6.2-0.2L541.2,580.6z M585.5,579.5c1.3,5.2-2.8,8-7.4,9.1l-10,2.4l-6-25l9.3-2.2
			c4.4-1.1,7.8-0.1,9,4.7c0.5,2.3,0.2,4.3-1.5,5.8l0,0.1C582.6,573.9,584.7,576,585.5,579.5z"/>
	</g>
	<line id="XMLID_61_" class="st9" x1="289.9" y1="547.1" x2="589.5" y2="475.4"/>
	<line id="XMLID_55_" class="st10" x1="472.9" y1="557.9" x2="322.1" y2="593.9"/>
	<line id="XMLID_54_" class="st10" x1="461.1" y1="596.3" x2="330.2" y2="627.7"/>
</g>
<g>
	<g class="st11">
		<defs>
			<rect id="SVGID_1_" x="1229.7" y="486.2" class="st11" width="377.4" height="512.8"/>
		</defs>
		<clipPath id="SVGID_2_">
			<use xlink:href="#SVGID_1_"  style="overflow:visible;"/>
		</clipPath>
	</g>
</g>
<g class="st12">
	<g>
		<line class="st13" x1="1490.3" y1="351.7" x2="1349.9" y2="351.7"/>
		<polyline class="st13" points="1311,351.7 1284.7,351.7 1284.7,187.5 1557.2,187.5 1557.2,351.7 1529.3,351.7 		"/>
		<ellipse class="st14" cx="1331.4" cy="406.9" rx="27" ry="7.6"/>
		<path class="st14" d="M1389.2,414.4c0-3-4.5-5.4-10.1-5.4c-5.6,0-10.1,2.4-10.1,5.4c0,3,4.5,5.4,10.1,5.4
			C1384.7,419.8,1389.2,417.4,1389.2,414.4z"/>
		<path class="st14" d="M1409.4,398.3c0-3-4.5-5.4-10.1-5.4c-5.6,0-10.1,2.4-10.1,5.4c0,3,4.5,5.4,10.1,5.4
			C1404.8,403.6,1409.4,401.2,1409.4,398.3z"/>
		<path class="st14" d="M1268.1,414.4c0-3-4.5-5.4-10.1-5.4c-5.6,0-10.1,2.4-10.1,5.4c0,3,4.5,5.4,10.1,5.4
			C1263.6,419.8,1268.1,417.4,1268.1,414.4z"/>
		<path class="st14" d="M1288.3,398.3c0-3-4.5-5.4-10.1-5.4c-5.6,0-10.1,2.4-10.1,5.4c0,3,4.5,5.4,10.1,5.4
			C1283.8,403.6,1288.3,401.2,1288.3,398.3z"/>
		<path class="st14" d="M1471.9,414.4c0-3-4.5-5.4-10.1-5.4c-5.6,0-10.1,2.4-10.1,5.4c0,3,4.5,5.4,10.1,5.4
			C1467.4,419.8,1471.9,417.4,1471.9,414.4z"/>
		<path class="st14" d="M1451.7,398.3c0-3-4.5-5.4-10.1-5.4c-5.6,0-10.1,2.4-10.1,5.4c0,3,4.5,5.4,10.1,5.4
			C1447.2,403.6,1451.7,401.2,1451.7,398.3z"/>
		<path class="st14" d="M1593,414.4c0-3-4.5-5.4-10.1-5.4c-5.6,0-10.1,2.4-10.1,5.4c0,3,4.5,5.4,10.1,5.4
			C1588.4,419.8,1593,417.4,1593,414.4z"/>
		<path class="st14" d="M1572.8,398.3c0-3-4.5-5.4-10.1-5.4c-5.6,0-10.1,2.4-10.1,5.4c0,3,4.5,5.4,10.1,5.4
			C1568.3,403.6,1572.8,401.2,1572.8,398.3z"/>
		<path class="st14" d="M1352.1,343.6c0,12-9.7,21.6-21.6,21.6c-12,0-21.6-9.7-21.6-21.6c0-12,9.7-21.6,21.6-21.6
			C1342.4,321.9,1352.1,331.6,1352.1,343.6z"/>
		<line class="st14" x1="1325.4" y1="365.2" x2="1325.8" y2="399.5"/>
		<line class="st14" x1="1336.3" y1="364.4" x2="1337" y2="399.5"/>
		<ellipse class="st14" cx="1511" cy="406.9" rx="27" ry="7.6"/>
		<path class="st14" d="M1531.7,343.6c0,12-9.7,21.6-21.6,21.6c-12,0-21.6-9.7-21.6-21.6c0-12,9.7-21.6,21.6-21.6
			C1522,321.9,1531.7,331.6,1531.7,343.6z"/>
		<line class="st14" x1="1504.9" y1="365.2" x2="1505.4" y2="399.5"/>
		<line class="st14" x1="1515.9" y1="364.4" x2="1516.6" y2="399.5"/>
		<path class="st13" d="M1201.6,436.8l57.7-58.5v-200c0-8.9,8-17.7,16.8-17.7h289.9c8.8,0,16.5,8.9,16.5,17.7v200l51,56.5"/>
		<path class="st13" d="M1638.4,461.8c0,8.8-4.2,15.2-12.9,15.2h-412.2c-8.7,0-16.6-6.3-16.6-15.2v-13.7c0-8.8,7.9-18.5,16.6-18.5
			h412.2c8.7,0,12.9,9.7,12.9,18.5V461.8z"/>
		<path class="st13" d="M1602.9,145c0,8.8-5,15.5-13.7,15.5h-339.6c-8.7,0-17.4-6.6-17.4-15.5V80.9c0-8.8,8.7-16.9,17.4-16.9h339.6
			c8.7,0,13.7,8,13.7,16.9V145z"/>
		<line class="st13" x1="1258.5" y1="377.1" x2="1324.5" y2="377.1"/>
		<line class="st13" x1="1336.3" y1="377.1" x2="1503.9" y2="377.1"/>
		<line class="st13" x1="1516.2" y1="379.2" x2="1583" y2="378.2"/>
		<line class="st13" x1="1240.9" y1="158.4" x2="1207.2" y2="431.5"/>
		<line class="st13" x1="1599" y1="156.8" x2="1633.3" y2="434.2"/>
		<path class="st13" d="M1213.3,477.9"/>
		<path class="st13" d="M1621.5,477.9"/>
	</g>
	<path class="st13" d="M1213.3,477.9l7.1,520.2c0,9.3,7.6,16.9,16.9,16.9h362.1c9.3,0,16.9-7.6,16.9-16.9l5.1-520.2"/>
</g>
<g>
	<g>
		<path class="st15" d="M979.3,388.1c9.3-3.7,18.8-6.8,28.5-9.6c9.6-2.8,19.4-5.1,29.2-7.2c9.8-2.1,19.8-3.7,29.7-5
			c10-1.4,20-2.3,30.1-2.8c10.1-0.5,20.2-0.8,30.3-0.5c10.1,0.3,20.2,1,30.3,2.1l7.5,0.9l7.5,1.1c5,0.9,10,1.7,14.9,2.8
			c9.9,2.1,19.8,4.7,29.4,7.9c9.7,3.1,19.1,6.9,28.4,11.1c4.6,2.1,9.2,4.4,13.7,6.7l6.7,3.7c2.2,1.2,4.4,2.6,6.6,3.9
			c8.7,5.3,17,11.2,24.9,17.6c2,1.5,3.9,3.2,5.9,4.9c1.9,1.7,3.9,3.3,5.7,5l5.6,5.2l5.4,5.4c1.8,1.8,3.5,3.7,5.2,5.5
			c1.7,1.9,3.5,3.7,5.1,5.7l4.9,5.8l1.2,1.5l1.2,1.5l2.3,3c3.2,4,6,8.1,9,12.2c1.5,2.1,2.8,4.2,4.2,6.3c1.3,2.1,2.8,4.2,4,6.4
			c2.6,4.3,5.2,8.6,7.5,13.1c1.2,2.2,2.4,4.4,3.6,6.7l3.3,6.8l1.7,3.4c0.5,1.1,1,2.3,1.5,3.4l3.1,6.9c1.1,2.3,1.9,4.6,2.8,7l2.8,7
			l-2.1,0.9c-2.2-4.5-4.3-9-6.6-13.4l-3.5-6.6c-0.6-1.1-1.1-2.2-1.7-3.3l-1.8-3.2l-3.7-6.5l-3.9-6.4c-2.5-4.3-5.3-8.4-8.1-12.5
			c-5.6-8.1-11.5-16.1-17.8-23.6l-2.4-2.8l-1.2-1.4l-1.2-1.4l-5-5.5c-1.6-1.8-3.4-3.5-5.1-5.3l-2.6-2.6c-0.9-0.9-1.8-1.7-2.7-2.6
			c-28.1-27.5-62.7-47.8-100-60.1c-9.3-3.1-18.8-5.6-28.4-7.8c-4.8-1.1-9.6-2-14.5-2.9l-7.3-1.2l-7.3-1.1
			c-9.8-1.3-19.6-2.2-29.5-2.7c-9.9-0.5-19.8-0.7-29.7-0.5c-19.8,0.4-39.6,2-59.3,4.9c-9.8,1.4-19.6,3.1-29.4,5.1
			c-4.9,1-9.8,2.1-14.6,3.2C988.9,385.4,984.1,386.7,979.3,388.1z"/>
		<g>
			<polygon class="st15" points="1363,538.8 1379.9,539.3 1392,527.5 1390.9,567.5 			"/>
		</g>
	</g>
</g>
</svg>
