<svg xmlns="http://www.w3.org/2000/svg" width="698.014" height="569" viewBox="0 0 698.014 569">
  <g id="Groupe_393" data-name="Groupe 393" transform="translate(-395.986 -313)">
    <g id="Groupe_303" data-name="Groupe 303" transform="translate(-14352 5271)">
      <g id="Encart" transform="translate(14781.74 -5561.366)">
        <rect id="Rectangle_81" data-name="Rectangle 81" width="234" height="6" transform="translate(413.26 848.366)" fill="#fff"/>
        <rect id="Rectangle_82" data-name="Rectangle 82" width="234" height="6" transform="translate(413.26 1166.366)" fill="#fff"/>
        <rect id="Rectangle_83" data-name="Rectangle 83" width="312" height="6" transform="translate(407.26 1166.366) rotate(-90)" fill="#fff"/>
        <rect id="Rectangle_84" data-name="Rectangle 84" width="312" height="6" transform="translate(647.26 1166.366) rotate(-90)" fill="#fff"/>
      </g>
      <g id="Encart-2" data-name="Encart" transform="translate(14878.959 -5484.741)">
        <rect id="Rectangle_81-2" data-name="Rectangle 81" width="40" height="6" transform="translate(413.041 847.741)" fill="#fff"/>
        <rect id="Rectangle_82-2" data-name="Rectangle 82" width="40" height="6" transform="translate(413.041 905.741)" fill="#fff"/>
        <rect id="Rectangle_83-2" data-name="Rectangle 83" width="52" height="6" transform="translate(407.041 905.741) rotate(-90)" fill="#fff"/>
        <rect id="Rectangle_84-2" data-name="Rectangle 84" width="52" height="6" transform="translate(453.041 905.741) rotate(-90)" fill="#fff"/>
      </g>
      <g id="Groupe_304" data-name="Groupe 304" transform="translate(10)">
        <g id="joystick" transform="translate(14841.959 -5652.003)">
          <rect id="Rectangle_81-3" data-name="Rectangle 81" width="16" height="6" transform="translate(413.041 848.003)" fill="#fff"/>
          <rect id="Rectangle_82-3" data-name="Rectangle 82" width="16" height="6" transform="translate(413.041 870.003)" fill="#fff"/>
          <rect id="Rectangle_91" data-name="Rectangle 91" width="32" height="6" transform="translate(424.041 873.003) rotate(90)" fill="#fff"/>
          <rect id="Rectangle_83-3" data-name="Rectangle 83" width="16" height="6" transform="translate(407.041 870.003) rotate(-90)" fill="#fff"/>
          <rect id="Rectangle_84-3" data-name="Rectangle 84" width="16" height="6" transform="translate(429.041 870.003) rotate(-90)" fill="#fff"/>
        </g>
        <g id="joystick-2" data-name="joystick" transform="translate(14919.959 -5652.003)">
          <rect id="Rectangle_81-4" data-name="Rectangle 81" width="16" height="6" transform="translate(413.041 848.003)" fill="#fff"/>
          <rect id="Rectangle_82-4" data-name="Rectangle 82" width="16" height="6" transform="translate(413.041 870.003)" fill="#fff"/>
          <rect id="Rectangle_91-2" data-name="Rectangle 91" width="32" height="6" transform="translate(424.041 873.003) rotate(90)" fill="#fff"/>
          <rect id="Rectangle_83-4" data-name="Rectangle 83" width="16" height="6" transform="translate(407.041 870.003) rotate(-90)" fill="#fff"/>
          <rect id="Rectangle_84-4" data-name="Rectangle 84" width="16" height="6" transform="translate(429.041 870.003) rotate(-90)" fill="#fff"/>
        </g>
      </g>
      <g id="Encart-3" data-name="Encart" transform="translate(14771.028 -5590.048)">
        <rect id="Rectangle_81-5" data-name="Rectangle 81" width="256" height="6" transform="translate(412.972 871.048)" fill="#fff"/>
        <rect id="Rectangle_82-5" data-name="Rectangle 82" width="256" height="6" transform="translate(412.972 848.048)" fill="#fff"/>
        <rect id="Rectangle_83-5" data-name="Rectangle 83" width="17" height="6" transform="translate(412.972 854.048) rotate(90)" fill="#fff"/>
        <rect id="Rectangle_84-5" data-name="Rectangle 84" width="17" height="6" transform="translate(674.972 854.048) rotate(90)" fill="#fff"/>
      </g>
      <g id="Encart-4" data-name="Encart" transform="translate(14785.324 -5749.117)">
        <rect id="Rectangle_81-6" data-name="Rectangle 81" width="228" height="6" transform="translate(412.676 848.117)" fill="#fff"/>
        <rect id="Rectangle_82-6" data-name="Rectangle 82" width="228" height="6" transform="translate(412.676 1001.117)" fill="#fff"/>
        <rect id="Rectangle_83-6" data-name="Rectangle 83" width="147" height="6" transform="translate(406.676 1001.117) rotate(-90)" fill="#fff"/>
        <rect id="Rectangle_84-6" data-name="Rectangle 84" width="147" height="6" transform="translate(640.676 1001.117) rotate(-90)" fill="#fff"/>
      </g>
      <g id="Encart-5" data-name="Encart" transform="translate(14791.614 -5806.387)">
        <rect id="Rectangle_81-7" data-name="Rectangle 81" width="214" height="6" transform="translate(413.386 899.387)" fill="#fff"/>
        <rect id="Rectangle_82-7" data-name="Rectangle 82" width="214" height="6" transform="translate(413.386 848.387)" fill="#fff"/>
        <rect id="Rectangle_83-7" data-name="Rectangle 83" width="45" height="6" transform="translate(413.386 854.387) rotate(90)" fill="#fff"/>
        <rect id="Rectangle_84-7" data-name="Rectangle 84" width="45" height="6" transform="translate(633.386 854.387) rotate(90)" fill="#fff"/>
      </g>
    </g>
    <path id="Tracé_810" data-name="Tracé 810" d="M105.968,45.019V26.69h18.645V45.019ZM12.58,9.6v9.164H133.3V9.6ZM133.3,18.764V74.7H12.264V18.764H3.1v83.743h9.164v-9.48H133.3v9.48h9.164V18.764ZM12.58,102.508v9.164H133.3v-9.164Z" transform="translate(538.052 608.4)" fill="#fff"/>
    <g id="noun_Smartphone_1507883" transform="translate(395.986 618)">
      <path id="Tracé_812" data-name="Tracé 812" d="M70.634,18.064v9.164H23.864V18.064H14.7v83.427h9.48v9.48H70.318v-9.48h9.8V18.064ZM42.825,101.808h0l-.316-1.9V92.643h9.48V99.6h0v2.212H42.825ZM70.634,83.163H23.864V36.393h46.77v46.77ZM24.18,18.064V8.9H70.318v9.164H24.18Z" transform="translate(-14.7 -8.9)" fill="#fff"/>
    </g>
    <g id="Groupe_335" data-name="Groupe 335">
      <g id="noun_Arrow_Down_1507908" data-name="noun_Arrow Down_1507908" transform="translate(755.7 725.234) rotate(-90)">
        <path id="Tracé_807" data-name="Tracé 807" d="M36.867,12.466h7.7V59.2H13.5v7.7H5.8V51.5H36.867ZM52.534,113.9h7.7v-7.7h-7.7Zm0-15.666h-7.7v7.7h7.7ZM29.167,82.567v7.966h7.7V82.567ZM13.5,74.866h7.7v-7.7H13.5ZM36.867,98.233h7.7v-7.7h-7.7Zm-15.4-23.367v7.7h7.7v-7.7Zm70.1,0h-7.7v7.7h7.966l-.266-7.7h7.7v-7.7h-7.7ZM75.9,90.533h7.7V82.567H75.9Zm0-39.033h0V12.466H68.2V59.2H99.533v7.7h7.7V51.5ZM68.2,98.233h7.7v-7.7H68.2v7.7Zm-7.7,7.7h7.7v-7.7H60.5ZM68.2,12.2V4.5H44.833v7.7Z" transform="translate(0 0)" fill="#fff"/>
      </g>
      <g id="Tracé_852" data-name="Tracé 852" transform="translate(15485 -5040)" fill="#fff">
        <path d="M -14661.9287109375 5752.3525390625 L -14662.4287109375 5752.3525390625 L -14670.3173828125 5752.3525390625 L -14670.8173828125 5752.3525390625 L -14670.8173828125 5751.8525390625 L -14670.8173828125 5720.99072265625 L -14717.193359375 5720.99072265625 L -14717.693359375 5720.99072265625 L -14717.693359375 5720.49072265625 L -14717.693359375 5697.0234375 L -14717.693359375 5696.5234375 L -14717.193359375 5696.5234375 L -14670.8173828125 5696.5234375 L -14670.8173828125 5665.4345703125 L -14670.8173828125 5664.9345703125 L -14670.3173828125 5664.9345703125 L -14662.4287109375 5664.9345703125 L -14661.9287109375 5664.9345703125 L -14661.9287109375 5665.4345703125 L -14661.9287109375 5673.244140625 L -14654.6259765625 5673.244140625 L -14654.1259765625 5673.244140625 L -14654.1259765625 5673.744140625 L -14654.1259765625 5680.53173828125 L -14647.248046875 5680.53173828125 L -14646.748046875 5680.53173828125 L -14646.748046875 5681.03173828125 L -14646.748046875 5688.39599609375 L -14639.205078125 5688.39599609375 L -14638.705078125 5688.39599609375 L -14638.705078125 5688.89599609375 L -14638.705078125 5696.5234375 L -14631.5869140625 5696.5234375 L -14631.0869140625 5696.5234375 L -14631.0869140625 5697.0234375 L -14631.0869140625 5704.248046875 L -14623.7373046875 5704.248046875 L -14623.2373046875 5704.248046875 L -14623.2373046875 5704.748046875 L -14623.2373046875 5712.451171875 L -14623.2373046875 5712.951171875 L -14623.7373046875 5712.951171875 L -14631.0869140625 5712.951171875 L -14631.0869140625 5720.49072265625 L -14631.0869140625 5720.99072265625 L -14631.5869140625 5720.99072265625 L -14638.705078125 5720.99072265625 L -14638.705078125 5728.38720703125 L -14638.705078125 5728.88720703125 L -14639.205078125 5728.88720703125 L -14646.748046875 5728.88720703125 L -14646.748046875 5735.72802734375 L -14646.748046875 5736.22802734375 L -14647.248046875 5736.22802734375 L -14654.1259765625 5736.22802734375 L -14654.1259765625 5743.95947265625 L -14654.1259765625 5744.45947265625 L -14654.6259765625 5744.45947265625 L -14661.9287109375 5744.45947265625 L -14661.9287109375 5751.8525390625 L -14661.9287109375 5752.3525390625 Z" stroke="none"/>
        <path d="M -14670.3173828125 5665.4345703125 L -14670.3173828125 5697.0234375 L -14717.193359375 5697.0234375 L -14717.193359375 5720.49072265625 L -14670.3173828125 5720.49072265625 L -14670.3173828125 5751.8525390625 L -14662.4287109375 5751.8525390625 L -14662.4287109375 5743.95947265625 L -14654.6259765625 5743.95947265625 L -14654.6259765625 5735.72802734375 L -14647.248046875 5735.72802734375 L -14647.248046875 5728.38720703125 L -14639.205078125 5728.38720703125 L -14639.205078125 5720.49072265625 L -14631.5869140625 5720.49072265625 L -14631.5869140625 5712.451171875 L -14623.7373046875 5712.451171875 L -14623.7373046875 5704.748046875 L -14631.5869140625 5704.748046875 L -14631.5869140625 5697.0234375 L -14639.205078125 5697.0234375 L -14639.205078125 5688.89599609375 L -14647.248046875 5688.89599609375 L -14647.248046875 5681.03173828125 L -14654.6259765625 5681.03173828125 L -14654.6259765625 5673.744140625 L -14662.4287109375 5673.744140625 L -14662.4287109375 5665.4345703125 L -14670.3173828125 5665.4345703125 M -14671.3173828125 5664.4345703125 L -14670.3173828125 5664.4345703125 L -14662.4287109375 5664.4345703125 L -14661.4287109375 5664.4345703125 L -14661.4287109375 5665.4345703125 L -14661.4287109375 5672.744140625 L -14654.6259765625 5672.744140625 L -14653.6259765625 5672.744140625 L -14653.6259765625 5673.744140625 L -14653.6259765625 5680.03173828125 L -14647.248046875 5680.03173828125 L -14646.248046875 5680.03173828125 L -14646.248046875 5681.03173828125 L -14646.248046875 5687.89599609375 L -14639.205078125 5687.89599609375 L -14638.205078125 5687.89599609375 L -14638.205078125 5688.89599609375 L -14638.205078125 5696.0234375 L -14631.5869140625 5696.0234375 L -14630.5869140625 5696.0234375 L -14630.5869140625 5697.0234375 L -14630.5869140625 5703.748046875 L -14623.7373046875 5703.748046875 L -14622.7373046875 5703.748046875 L -14622.7373046875 5704.748046875 L -14622.7373046875 5712.451171875 L -14622.7373046875 5713.451171875 L -14623.7373046875 5713.451171875 L -14630.5869140625 5713.451171875 L -14630.5869140625 5720.49072265625 L -14630.5869140625 5721.49072265625 L -14631.5869140625 5721.49072265625 L -14638.205078125 5721.49072265625 L -14638.205078125 5728.38720703125 L -14638.205078125 5729.38720703125 L -14639.205078125 5729.38720703125 L -14646.248046875 5729.38720703125 L -14646.248046875 5735.72802734375 L -14646.248046875 5736.72802734375 L -14647.248046875 5736.72802734375 L -14653.6259765625 5736.72802734375 L -14653.6259765625 5743.95947265625 L -14653.6259765625 5744.95947265625 L -14654.6259765625 5744.95947265625 L -14661.4287109375 5744.95947265625 L -14661.4287109375 5751.8525390625 L -14661.4287109375 5752.8525390625 L -14662.4287109375 5752.8525390625 L -14670.3173828125 5752.8525390625 L -14671.3173828125 5752.8525390625 L -14671.3173828125 5751.8525390625 L -14671.3173828125 5721.49072265625 L -14717.193359375 5721.49072265625 L -14718.193359375 5721.49072265625 L -14718.193359375 5720.49072265625 L -14718.193359375 5697.0234375 L -14718.193359375 5696.0234375 L -14717.193359375 5696.0234375 L -14671.3173828125 5696.0234375 L -14671.3173828125 5665.4345703125 L -14671.3173828125 5664.4345703125 Z" stroke="none" fill="#fff"/>
      </g>
    </g>
  </g>
</svg>
