<svg xmlns="http://www.w3.org/2000/svg" width="69.81" height="71.42" viewBox="0 0 69.81 71.42">
  <g id="Groupe_394" data-name="Groupe 394" transform="translate(-1598.868 -357)">
    <g id="_" data-name="+" transform="translate(1533.682 287.44)">
      <g id="noun_Plus_1507870" transform="translate(73.868 80)">
        <path id="Tracé_811" data-name="Tracé 811" d="M31.013,38.767v21.81h-4.3V43.218H9.351V38.767Zm-26.113,0H9.2V30.013H4.9ZM44.366,25.71V8.2H39.915v21.81H61.577v-4.3ZM39.915,38.767v21.81h4.451V43.218H61.577V38.767Zm21.81-8.754v8.754h4.3V30.013ZM31.161,3.9V8.2h8.605V3.9ZM26.71,25.71H9.351v4.3H31.013V8.2h-4.3Zm4.451,34.867v4.3h8.605v-4.3Z" transform="translate(-4.9 -3.9)" fill="#c97005"/>
        <rect id="Rectangle_93" data-name="Rectangle 93" width="10" height="52" transform="translate(25.45 4.56)" fill="#c97005"/>
        <rect id="Rectangle_94" data-name="Rectangle 94" width="9.997" height="52.71" transform="translate(56.919 25.9) rotate(90)" fill="#c97005"/>
      </g>
    </g>
    <g id="_2" data-name="+" transform="translate(1525 277)">
      <g id="noun_Plus_1507870-2" data-name="noun_Plus_1507870" transform="translate(68.968 76.1)">
        <path id="Tracé_811-2" data-name="Tracé 811" d="M33.634,42.266v24H28.9v-19.1H9.8v-4.9Zm-28.734,0H9.635V32.634H4.9ZM48.327,27.9V8.635h-4.9v24H67.266V27.9Zm-4.9,14.367v24h4.9v-19.1H67.266v-4.9Zm24-9.632v9.632h4.735V32.634ZM33.8,3.9V8.635h9.469V3.9Zm-4.9,24H9.8v4.735H33.634v-24H28.9Zm4.9,38.366V71h9.469V66.266Z" transform="translate(0 0)" fill="#fff222"/>
        <rect id="Rectangle_93-2" data-name="Rectangle 93" width="11" height="58" transform="translate(33.031 8.9)" fill="#fff222"/>
        <rect id="Rectangle_94-2" data-name="Rectangle 94" width="11" height="58" transform="translate(67.531 32.4) rotate(90)" fill="#fff222"/>
      </g>
    </g>
  </g>
</svg>
