<svg id="fleche_droite" data-name="fleche droite" xmlns="http://www.w3.org/2000/svg" width="47.736" height="70.01" viewBox="0 0 47.736 70.01">
  <g id="fleche" transform="translate(0 0.241)">
    <path id="Tracé_795" data-name="Tracé 795" d="M106,109.508V104h5.508v5.508Z" transform="translate(-69.28 -83.804)" fill="#707070"/>
    <path id="Tracé_796" data-name="Tracé 796" d="M133.736,122.229V105.7H122.72v-9.18h-5.508V91.016H111.7V85.508h-3.672V80H91.508v5.508H86v58.753h5.508v5.508h16.524v-5.508H111.7v-5.692l5.508.184v-5.508h5.508v-5.508h5.508v-5.508Z" transform="translate(-86 -80)" fill="#c97005"/>
  </g>
  <g id="fleche-2" data-name="fleche" transform="translate(4.186)">
    <path id="Tracé_795-2" data-name="Tracé 795" d="M106,109.508V104h5.508v5.508Z" transform="translate(-73.651 -86.166)" fill="#eee128"/>
    <path id="Tracé_796-2" data-name="Tracé 796" d="M129.365,117.679V102.935H119.358V94.744h-5V89.829h-5V84.915h-3.336V80H91v4.915H86v52.422h5v4.915h15.011v-4.915h3.336v-5.078l5,.164v-4.915h5v-4.915h5v-4.915Z" transform="translate(-86 -80)" fill="#eee128"/>
  </g>
</svg>
